<svg id="eTeBfowXxlR1" xmlns="http://www.w3.org/2000/svg" xmlns:xlink="http://www.w3.org/1999/xlink" shape-rendering="geometricPrecision" text-rendering="geometricPrecision" viewBox="115.97 74.97 106.55 106.55"><g><g><g transform="matrix(0 1-1 0 297.481697-40.994201)"><ellipse rx="47.260886" ry="47.260886" transform="translate(169.237952 128.243751)" fill="#fff" stroke="#0e337c" stroke-width="6"/><rect width="9.329609" height="24.112685" rx="0" ry="0" transform="matrix(1 0 0 0.663009 164.573148 80.982865)" fill="#0e337c" stroke-width="0"/></g></g><rect width="9.329609" height="24.112685" rx="0" ry="0" transform="matrix(1 0 0 0.663009 164.573148 80.982865)" fill="#0e337c" stroke-width="0"/></g><g transform="matrix(-1 0 0-1 338.475905 256.487487)"><g><g transform="matrix(0 1-1 0 297.481697-40.994201)"><ellipse rx="47.260886" ry="47.260886" transform="translate(169.237952 128.243751)" fill="#fff" fill-opacity="0" stroke="#0e337c" stroke-width="6"/><rect width="9.329609" height="24.112685" rx="0" ry="0" transform="matrix(1 0 0 0.663009 164.573148 80.982865)" fill="#0e337c" stroke-width="0"/></g></g><rect width="9.329609" height="24.112685" rx="0" ry="0" transform="matrix(1 0 0 0.663009 164.573148 80.982865)" fill="#0e337c" stroke-width="0"/></g><polygon points="0,-30 30,0 0,30 -30,0 0,-30" transform="matrix(.368091-.298475 0.867698 1.070081 169.237952 128.243751)" fill="#0e337c" stroke-width="0"/><ellipse rx="10.362028" ry="10.878124" transform="matrix(.937558 0 0 0.937549 169.237952 128.243751)" fill="#fff" stroke="#fff"/></svg>
