<svg id="eJC5aR7Ak3n1" xmlns="http://www.w3.org/2000/svg" xmlns:xlink="http://www.w3.org/1999/xlink" shape-rendering="geometricPrecision" text-rendering="geometricPrecision" viewBox="117.2 45.6 112.02 115.38"><ellipse rx="64.151271" ry="64.151271" transform="matrix(0 0.777779-.777779 0 173.096671 105.123695)" fill="#fff" stroke="#f00"></ellipse><ellipse rx="50" ry="50" transform="translate(173.20116 104.96839)" fill="rgba(210,219,237,0)" stroke="#090a3a" stroke-width="6" stroke-miterlimit="6"></ellipse><g transform="matrix(.784439 0 0 0.784439-5.852266 13.103011)"><line x1="-2.982802" y1="19.979234" x2="2.982803" y2="-19.833607" transform="translate(225.248061 91.585262)" fill="none" stroke="#090a3a" stroke-width="3" stroke-linecap="round"></line><g><line x1="-2.982802" y1="19.979234" x2="2.982803" y2="-19.833607" transform="translate(225.248061 91.585262)" fill="none" stroke="#090a3a" stroke-width="4" stroke-linecap="round" stroke-miterlimit="6"></line><line x1="-2.9828" y1="19.979234" x2="2.982803" y2="-19.833607" transform="matrix(-1 0 0 1 231.248061 91.585262)" fill="none" stroke="#3f5787" stroke-width="3" stroke-linecap="round"></line></g><g transform="matrix(0 1-1 0 345.649734-110.846389)"><line x1="-2.837176" y1="19.833609" x2="2.982803" y2="-19.833607" transform="translate(225.248061 91.585262)" fill="none" stroke="#090a3a" stroke-width="4" stroke-linecap="round" stroke-miterlimit="6"></line><line x1="-3.128427" y1="19.833609" x2="2.982803" y2="-19.833607" transform="matrix(-1 0 0 1 231.248061 91.585262)" fill="none" stroke="#090a3a" stroke-width="4" stroke-linecap="round" stroke-miterlimit="6"></line></g><g transform="matrix(-1 0 0-1 456.513317 234.692118)"><line x1="-2.982809" y1="19.687975" x2="2.982803" y2="-19.833607" transform="translate(225.248061 91.585262)" fill="none" stroke="#090a3a" stroke-width="4" stroke-linecap="round" stroke-miterlimit="6"></line><line x1="-2.982799" y1="19.687975" x2="2.982803" y2="-19.833607" transform="matrix(-1 0 0 1 231.248061 91.585262)" fill="none" stroke="#090a3a" stroke-width="4" stroke-linecap="round" stroke-miterlimit="6"></line></g><g transform="matrix(0-1 1 0 110.863587 345.538499)"><line x1="-3.128427" y1="19.833611" x2="2.982803" y2="-19.833607" transform="translate(225.248061 91.585262)" fill="none" stroke="#090a3a" stroke-width="4" stroke-linecap="round" stroke-miterlimit="6"></line><line x1="-2.837176" y1="19.833611" x2="3.128432" y2="-19.833605" transform="matrix(-1 0 0 1 231.248061 91.585262)" fill="none" stroke="#090a3a" stroke-width="4" stroke-linecap="round" stroke-miterlimit="6"></line></g><line x1="-2.9828" y1="19.979234" x2="2.982803" y2="-19.833607" transform="matrix(-1 0 0 1 231.248061 91.585262)" fill="none" stroke="#090a3a" stroke-width="4" stroke-linecap="round" stroke-miterlimit="6"></line></g><ellipse rx="51.173418" ry="51.173418" transform="matrix(.84028 0 0 0.84028 173.171386 104.96839)" fill="rgba(210,219,237,0)" stroke="#090a3a" stroke-width="4" stroke-linecap="round" stroke-miterlimit="5" stroke-dasharray="12.3,12.3"></ellipse><g transform="matrix(.979857-.199698 0.199698 0.979857-16.740036 37.161075)"><g transform="matrix(1.021131-.612473 0.612473 1.021131-101.021551 85.448316)"><line x1="-2.973692" y1="26.499858" x2="2.973692" y2="-26.499858" transform="translate(185.995788 106.20804)" fill="#fff" stroke="#fff" stroke-width="8" stroke-linecap="round" stroke-linejoin="round"></line><g transform="matrix(-1 0 0-.490014 420.151633 195.60248)"><line x1="-2.973692" y1="26.499858" x2="2.973692" y2="-26.499858" transform="translate(228.20846 101.852765)" fill="#e61515" stroke="#fff" stroke-width="8" stroke-linecap="round" stroke-linejoin="round"></line><line x1="-2.973692" y1="26.499858" x2="2.973692" y2="-26.499858" transform="matrix(-1 0 0 1 234.155844 101.852765)" fill="#e61515" stroke="#fff" stroke-width="8" stroke-linecap="round" stroke-linejoin="round"></line></g><line x1="-2.973692" y1="26.499858" x2="2.973692" y2="-26.499858" transform="matrix(-1 0 0 1 191.943172 106.20804)" fill="#fff" stroke="#fff" stroke-width="8" stroke-linecap="round" stroke-linejoin="round"></line></g><g transform="matrix(1.021131-.612473 0.612473 1.021131-101.021556 85.448308)"><line x1="-2.973692" y1="26.499858" x2="2.973692" y2="-26.499858" transform="translate(185.995788 106.20804)" fill="#e61515" stroke="#090a3a" stroke-width="3" stroke-linecap="round" stroke-linejoin="round"></line><g transform="matrix(-1 0 0-.490014 420.151633 195.60248)"><line x1="-2.973692" y1="26.499858" x2="2.973692" y2="-26.499858" transform="translate(228.20846 101.852765)" fill="#e61515" stroke="#090a3a" stroke-width="3" stroke-linecap="round" stroke-linejoin="round"></line><line x1="-2.973692" y1="26.499858" x2="2.973692" y2="-26.499858" transform="matrix(-1 0 0 1 234.155844 101.852765)" fill="#e61515" stroke="#090a3a" stroke-width="3" stroke-linecap="round" stroke-linejoin="round"></line></g><line x1="-2.973692" y1="26.499858" x2="2.973692" y2="-26.499858" transform="matrix(-1 0 0 1 191.943172 106.20804)" fill="#e61515" stroke="#090a3a" stroke-width="3" stroke-linecap="round" stroke-linejoin="round"></line></g><polygon points="0,-30 30,0 0,30 -30,0 0,-30" transform="matrix(.514326 0.857595-.239469 0.143617 172.586463 104.555652)" fill="#090a3a" stroke-width="0"></polygon><polygon points="0,-30 30,0 0,30 -30,0 0,-30" transform="matrix(.514326 0.857595-.133312 0.079951 162.063569 86.712435)" fill="#090a3a" stroke-width="0"></polygon></g></svg>
